<svg width="18" height="20" viewBox="0 0 18 20" fill="none" xmlns="http://www.w3.org/2000/svg">
<path d="M1 10L17 10M17 18L17 2C17 1.73478 16.8946 1.48043 16.7071 1.29289C16.5196 1.10536 16.2652 0.999999 16 0.999999L2 1C1.73478 1 1.48043 1.10536 1.29289 1.29289C1.10536 1.48043 0.999999 1.73478 0.999999 2L1 18C1 18.2652 1.10536 18.5196 1.29289 18.7071C1.48043 18.8946 1.73478 19 2 19L16 19C16.2652 19 16.5196 18.8946 16.7071 18.7071C16.8946 18.5196 17 18.2652 17 18Z" stroke="white" stroke-width="2" stroke-linejoin="round"/>
</svg>
