<svg width="378" height="378" viewBox="0 0 378 378" fill="none" xmlns="http://www.w3.org/2000/svg">
<rect x="9" y="9" width="360" height="360" rx="45" fill="#19082B"/>
<path d="M135.15 243.54H127.47V143.34H136.47C142.07 143.34 146.39 146.78 149.43 153.66C152.47 160.54 153.99 170.3 153.99 182.94V195.06C153.99 212.34 152.35 224.74 149.07 232.26C145.87 239.78 141.23 243.54 135.15 243.54ZM138.87 264.06C147.67 264.06 155.51 262.54 162.39 259.5C169.27 256.46 174.79 252.5 178.95 247.62C183.11 242.74 186.55 236.94 189.27 230.22C191.99 223.42 193.83 216.66 194.79 209.94C195.83 203.22 196.35 196.14 196.35 188.7C196.35 166.78 191.91 150.1 183.03 138.66C174.23 127.22 159.63 121.5 139.23 121.5C135.63 121.5 130.67 121.66 124.35 121.98C118.03 122.3 112.19 122.5 106.83 122.58H87.75V263.22H106.83C113.23 263.22 119.43 263.34 125.43 263.58C131.51 263.9 135.99 264.06 138.87 264.06Z" fill="#7928CB"/>
<path d="M232.233 263.22H270.033L300.633 161.22H268.233L259.353 198.06L253.233 229.86L247.713 198.06L240.033 161.22H196.953L232.233 263.22Z" fill="#7928CB"/>
<rect x="9" y="9" width="360" height="360" rx="45" stroke="#9955DD" stroke-width="17"/>
</svg>
